<svg xmlns="http://www.w3.org/2000/svg" xmlns:xlink="http://www.w3.org/1999/xlink" viewBox="0 0 200.23 195.7"><defs><style>.cls-1{fill:none;}.cls-2{opacity:0.7;}.cls-3{fill:#e1f0ff;}.cls-4{clip-path:url(#clip-path);}.cls-5{fill:#8e3e30;}.cls-6{fill:#723021;}.cls-7{fill:#86c1e2;}.cls-8{fill:#67b2d3;opacity:0.5;}.cls-9{fill:#2c2429;}.cls-10{fill:#5e1d12;}.cls-11{fill:#fff;}.cls-12{fill:#161114;}</style><clipPath id="clip-path"><path class="cls-1" d="M0,96.19Q.95,55.06,29.21,26.84A89,89,0,0,1,74.39,2.36a103.66,103.66,0,0,1,52.4,2.2,105.53,105.53,0,0,1,44.87,26.67q27.6,27.62,28.55,65T170.4,164.27q-30.12,30.12-70.91,31.38T29.21,167.41Q-.91,137.29,0,96.19Z"/></clipPath></defs><g id="Layer_2" data-name="Layer 2"><g id="OBJECTS"><g class="cls-2"><path class="cls-3" d="M0,96.19Q.95,55.06,29.21,26.84A89,89,0,0,1,74.39,2.36a103.66,103.66,0,0,1,52.4,2.2,105.53,105.53,0,0,1,44.87,26.67q27.6,27.62,28.55,65T170.4,164.27q-30.12,30.12-70.91,31.38T29.21,167.41Q-.91,137.29,0,96.19Z"/></g><g class="cls-4"><path class="cls-5" d="M116.53,139.7c-6.7-5.26-.48-35.39-.48-35.39H78.11s6.22,30.13-.48,35.39S20.25,144.48,25,195.17h144.1C173.91,144.48,123.22,145,116.53,139.7Z"/><path class="cls-6" d="M114.59,136.69c-3.31-9.28,1.46-32.38,1.46-32.38H78.11s2.56,12.42,2.62,22.71C90.28,133.94,102.28,136.68,114.59,136.69Z"/><path class="cls-7" d="M121.31,140.38l-.17-6.58-45.15-1,0,6.29c-63.55,8.45-51.73,56.12-51.73,56.12l72.58.48h.56l72.58-.48S181.3,154.06,121.31,140.38Z"/><path class="cls-8" d="M126.8,183c-22.55-2.81-46.53-6.8-67.34-16.32C52,163.27,44.63,159,37.09,155c-19.41,16.85-12.87,40.21-12.87,40.21l72.58.48h.56l72.58-.48a38.11,38.11,0,0,0,1.06-8.94C156.23,185.78,141.49,184.83,126.8,183Z"/><path class="cls-6" d="M56.87,88.25c1.78,6.53,6.8,12.32,10.75,11.24S73,90.87,71.17,84.35s-6.06-9.58-10-8.5S55.08,81.72,56.87,88.25Z"/><path class="cls-6" d="M137.29,88.25c-1.78,6.53-6.8,12.32-10.75,11.24s-5.33-8.62-3.55-15.14,6.06-9.58,10-8.5S139.08,81.72,137.29,88.25Z"/><path class="cls-5" d="M64.33,76.55c0,23.9,14.78,48.3,33,48.3s33-24.4,33-48.3-14.78-38.26-33-38.26S64.33,52.65,64.33,76.55Z"/><path class="cls-9" d="M122.49,56.7s-1.19,11,5,12.91c0,0-4.45,39-10.4,41.65-7.16,3.16,1.44-15-10.51-13.56C93.05,99.36,81.7,93,81,105.86c-.62,11.59-11.9,1.66-13.28-21.17-.21-3.48-.43-6.14-.64-8.14l-.79-11c9.33-4.06,12.92-21.28,12.92-21.28S72,28.66,60.57,41.16c-10.29,11.24-.72,35.15-.72,35.15,2-.45,3.28,3.06,4.08,6.93,0,.56-.07.9-.07.9s.67,9.69,1.38,21.31c1.11,18,8.16,26.7,33.07,26.84,22.58.12,30.9-7.86,31.82-46.77,1.1-12.45,2.21-18.51,2.21-26C132.34,49.71,122.49,56.7,122.49,56.7Zm-17.82,61.75c-3.43-.63-4.15-5.67-4.15-5.67l-6-.42s-.25,5.88-5,5.68c-6.5-.28-4.7-15-4.7-15a23.06,23.06,0,0,0,12.86-.83c7.33,3.32,12.45,1.66,12.45,1.66C111,114.58,108.41,119.14,104.67,118.45Z"/><path class="cls-9" d="M73,44.57s11.07,15.22,35.42,19.09l-10-7.74s27.4,12.17,36.53-.56a26.67,26.67,0,0,0,3.6-25.18s-.56,8.58-4.16,10.52c0,0,5.82-11.62-3.59-20.2,0,0,.83,9.68-5.54,10S84.06-1.08,70.22,37.1,73,44.57,73,44.57Z"/><path class="cls-10" d="M57.62,85.48a10.19,10.19,0,0,1-.09-2.59,6,6,0,0,1,.26-1.34,2.71,2.71,0,0,1,.89-1.38,1.76,1.76,0,0,1,1.08-.32,2.41,2.41,0,0,1,1,.28,3,3,0,0,1,.4.25,2.93,2.93,0,0,1,.27.21c.1.11.23.23.32.34l.23.3a10.1,10.1,0,0,1,1.23,2.49c.28.84.5,1.68.7,2.52s.3,1.69.42,2.54.18,1.69.24,2.54,0,1.69.06,2.55v.52l-.35.17a5,5,0,0,0-.53.32,3.91,3.91,0,0,0-.48.4,1.08,1.08,0,0,0-.42.82,1.59,1.59,0,0,0,.74.9,9.17,9.17,0,0,0,1.28.7,6.05,6.05,0,0,1-1.5-.26,2.11,2.11,0,0,1-1.37-1,1.63,1.63,0,0,1-.09-1,2.66,2.66,0,0,1,.39-.85,5.69,5.69,0,0,1,1.17-1.23l-.35.69-.44-2.44-.45-2.43c-.14-.81-.3-1.61-.49-2.4s-.34-1.58-.56-2.34a11.1,11.1,0,0,0-.79-2.09l-.13-.2a1.19,1.19,0,0,1-.09-.15,1.07,1.07,0,0,0-.19-.21s-.08-.07-.11-.11c-.23-.15-.22-.17-.33-.16a1.32,1.32,0,0,0-.58.6,11.4,11.4,0,0,0-.51,1C58.12,83.85,57.86,84.66,57.62,85.48Z"/><path class="cls-10" d="M136.52,85.48c-.24-.82-.5-1.63-.79-2.38a11.4,11.4,0,0,0-.51-1,1.37,1.37,0,0,0-.58-.6c-.11,0-.1,0-.33.16,0,0-.14.12-.12.11a2.76,2.76,0,0,0-.19.21.55.55,0,0,1-.08.15l-.13.2a10.45,10.45,0,0,0-.79,2.09c-.22.76-.41,1.54-.56,2.34s-.35,1.59-.49,2.4l-.45,2.43L131.06,94l-.52-.78a2.48,2.48,0,0,1,.4.21,2.71,2.71,0,0,1,.35.24,2.61,2.61,0,0,1,.63.65,1.71,1.71,0,0,1,.3,1,1.8,1.8,0,0,1-.27.89,3.55,3.55,0,0,1-1.11,1,7.9,7.9,0,0,1-1.27.63c.34-.33.65-.67.94-1a3.37,3.37,0,0,0,.63-1.06.64.64,0,0,0-.19-.72,1.52,1.52,0,0,0-.4-.25l-.24-.09-.24-.07-.52,0v-.74c0-.86,0-1.7.06-2.55s.12-1.7.24-2.54.25-1.69.42-2.54.42-1.68.7-2.52a10.42,10.42,0,0,1,1.22-2.49l.24-.3c.09-.11.21-.23.32-.34a2.93,2.93,0,0,1,.27-.21,3,3,0,0,1,.4-.25,2.41,2.41,0,0,1,1-.28,1.76,1.76,0,0,1,1.08.32,2.71,2.71,0,0,1,.89,1.38,6,6,0,0,1,.26,1.34A10.19,10.19,0,0,1,136.52,85.48Z"/><path class="cls-10" d="M99.2,75.86c.45.78.87,1.58,1.24,2.4s.72,1.65,1.06,2.49.61,1.68.91,2.53.53,1.72.77,2.59.42,1.76.61,2.64.32,1.78.44,2.69c.07.45.12.9.16,1.36s.07.91.07,1.37,0,.92,0,1.38l-.11,1.39,0,.64-.57.09c-1.11.19-2.24.33-3.36.47s-2.26.24-3.41.28c1-.46,2.12-.85,3.19-1.24s2.15-.73,3.23-1l-.61.73c-.05-.86-.1-1.71-.2-2.57,0-.42-.12-.85-.18-1.28s-.11-.86-.19-1.29c-.12-.86-.32-1.71-.46-2.58s-.33-1.72-.52-2.58-.35-1.73-.53-2.59l-.54-2.6C99.82,79.39,99.48,77.65,99.2,75.86Z"/><path class="cls-11" d="M85.16,104.89s11.21,11.21,24.35.42"/><path class="cls-12" d="M100.5,74.64a2.28,2.28,0,0,1,.06-.31,6.16,6.16,0,0,1,.25-.84,8.5,8.5,0,0,1,.56-1.26,10.62,10.62,0,0,1,1-1.51,11.52,11.52,0,0,1,1.5-1.58,9.39,9.39,0,0,1,1-.72l.52-.36.58-.3a13.37,13.37,0,0,1,1.22-.55c.44-.13.89-.26,1.34-.37a6.47,6.47,0,0,1,1.39-.2,11.24,11.24,0,0,1,1.42-.06l1.39.16.69.1.65.2a11.18,11.18,0,0,1,2.43.95,15.73,15.73,0,0,1,2,1.23c.59.47,1.12.92,1.6,1.35a7.71,7.71,0,0,1,1.18,1.3c.34.4.6.77.82,1.07.43.61.64,1,.64,1s-.43-.12-1.11-.38c-.35-.14-.77-.29-1.21-.49a14.26,14.26,0,0,0-1.53-.62c-.56-.2-1.15-.42-1.76-.68s-1.28-.37-1.93-.61a15.08,15.08,0,0,0-2-.48l-.51-.12-.51,0-1-.1a8.51,8.51,0,0,0-1,0,4.67,4.67,0,0,0-1,.07c-.33.06-.65.1-1,.14s-.62.19-.94.26l-.47.12-.45.18c-.29.12-.59.22-.88.35-.55.28-1.11.52-1.59.83s-1,.57-1.37.83-.76.51-1,.73-.53.39-.68.52Z"/><path class="cls-12" d="M70.85,74.64a2.28,2.28,0,0,1,.06-.31,6.16,6.16,0,0,1,.25-.84,8.5,8.5,0,0,1,.56-1.26,10.62,10.62,0,0,1,1-1.51,11.52,11.52,0,0,1,1.5-1.58,9.39,9.39,0,0,1,1-.72l.52-.36.58-.3a12.42,12.42,0,0,1,1.23-.55c.43-.13.88-.26,1.33-.37a6.47,6.47,0,0,1,1.39-.2,11.32,11.32,0,0,1,1.42-.06l1.39.16.69.1.65.2A11,11,0,0,1,86.8,68a15.73,15.73,0,0,1,2,1.23c.59.47,1.12.92,1.6,1.35a7.71,7.71,0,0,1,1.18,1.3c.34.4.6.77.82,1.07.43.61.64,1,.64,1s-.43-.12-1.11-.38c-.35-.14-.77-.29-1.21-.49a14.26,14.26,0,0,0-1.53-.62c-.56-.2-1.15-.42-1.76-.68s-1.28-.37-1.93-.61a15.08,15.08,0,0,0-2-.48L83,70.54l-.51,0-1-.1a8.51,8.51,0,0,0-1,0,4.67,4.67,0,0,0-1,.07c-.33.06-.65.1-1,.14s-.62.19-.94.26L77.1,71l-.44.18c-.3.12-.6.22-.89.35-.55.28-1.11.52-1.59.83s-1,.57-1.37.83-.76.51-1,.73-.53.39-.68.52Z"/><path class="cls-12" d="M84.58,81.41c0,2.6-.72,4.7-1.61,4.7s-1.6-2.1-1.6-4.7.72-4.7,1.6-4.7S84.58,78.81,84.58,81.41Z"/><path class="cls-12" d="M112.61,80.77c0,2.6-.72,4.71-1.6,4.71s-1.61-2.11-1.61-4.71.72-4.7,1.61-4.7S112.61,78.18,112.61,80.77Z"/></g></g></g></svg>