<svg xmlns="http://www.w3.org/2000/svg" xmlns:xlink="http://www.w3.org/1999/xlink" viewBox="0 0 196.53 205.46"><defs><style>.cls-1{fill:none;}.cls-2{opacity:0.2;}.cls-3{fill:#c1db4d;}.cls-4{clip-path:url(#clip-path);}.cls-5{fill:#8e3e30;}.cls-6{fill:#723021;}.cls-7{fill:#161114;}.cls-8{fill:#2c2429;}.cls-9{fill:#5e1d12;}.cls-10{fill:#fff;}</style><clipPath id="clip-path"><path class="cls-1" d="M196.5,97.67q-.9,40.36-28.64,68.06a87.3,87.3,0,0,1-44.34,24,101.56,101.56,0,0,1-51.43-2.16,103.52,103.52,0,0,1-44-26.17Q.95,134.33,0,97.68T29.28,30.85Q58.85,1.29,98.88.05t69,27.72Q197.43,57.32,196.5,97.67Z"/></clipPath></defs><g id="Layer_2" data-name="Layer 2"><g id="OBJECTS"><g class="cls-2"><path class="cls-3" d="M196.5,97.67q-.9,40.36-28.64,68.06a87.3,87.3,0,0,1-44.34,24,101.56,101.56,0,0,1-51.43-2.16,103.52,103.52,0,0,1-44-26.17Q.95,134.33,0,97.68T29.28,30.85Q58.85,1.29,98.88.05t69,27.72Q197.43,57.32,196.5,97.67Z"/></g><g class="cls-4"><path class="cls-5" d="M115.4,151.5c-5.94-5.07-.42-34.13-.42-34.13H81.31s5.51,29.06-.43,34.13S30,156.11,34.2,205H162.09C166.33,156.11,121.34,156.57,115.4,151.5Z"/><path class="cls-6" d="M113.69,148.6c-2.94-8.95,1.29-31.23,1.29-31.23H81.31a144.31,144.31,0,0,1,2.32,21.9C92.11,145.94,102.76,148.59,113.69,148.6Z"/><path class="cls-3" d="M124.47,152.88s-4.76,16-26.33,16.14c-21.56-.13-26.32-16.14-26.32-16.14C23,164.41,33.48,205,33.48,205l64.41.46h.51l64.41-.46S173.26,164.41,124.47,152.88Z"/><path class="cls-7" d="M82.52,47.49S67.12,50,67.26,43.58,81.9,40.5,81.9,40.5,56.63,38.36,61.7,25.85s15.75-12.11,26.42.87S69.54,11.9,80.29,7,93.68,27.61,93.68,27.61,87.18,3.67,102.86,5.2s13.45,19.84,6.6,26.62,3.69-16.07,10.05-15.14-7.77,17.16-7.77,17.16,7.93-11.26,15.65-2.22-5.2,18.66-19.11,14.57A40.13,40.13,0,0,0,82.52,47.49Z"/><ellipse class="cls-3" cx="96.13" cy="44.69" rx="10.14" ry="7.34"/><path class="cls-6" d="M59.36,103.75c1.72,6.3,6.56,11.88,10.37,10.84s5.14-8.31,3.42-14.61-5.84-9.23-9.65-8.19S57.64,97.45,59.36,103.75Z"/><path class="cls-6" d="M136.93,103.75c-1.72,6.3-6.57,11.88-10.38,10.84s-5.14-8.31-3.42-14.61,5.85-9.23,9.65-8.19S138.65,97.45,136.93,103.75Z"/><path class="cls-5" d="M66.56,92.46c0,23.06,14.25,46.59,31.82,46.59s31.83-23.53,31.83-46.59S116,55.56,98.38,55.56,66.56,69.41,66.56,92.46Z"/><path class="cls-8" d="M122.28,51s-26.42-17.35-48-1.34c-23,13.88-8.54,42.44-8.54,42.44l1.6,7.47c2.63-5.15,3.76-11.25,4.18-16.75,5.12-3.79,6-13.36,6-18.52,9.16-3.64,26.44-8.38,41.29-.31,0,5.46.94,16.51,7.32,19.6a35.14,35.14,0,0,0,3.62,14.91l.43-6.4S146.19,64.69,122.28,51Z"/><path class="cls-9" d="M60.09,101.07A9.86,9.86,0,0,1,60,98.58a5.49,5.49,0,0,1,.26-1.28A2.55,2.55,0,0,1,61.14,96a1.64,1.64,0,0,1,1-.3,2.38,2.38,0,0,1,.9.26,3.74,3.74,0,0,1,.37.24,2,2,0,0,1,.26.21,3.48,3.48,0,0,1,.53.61,9.78,9.78,0,0,1,1.17,2.39c.27.81.48,1.62.67,2.42s.3,1.63.41,2.44.17,1.64.24,2.45.06,1.63.06,2.46v.46l-.3.16a3.23,3.23,0,0,0-.28.18,3.11,3.11,0,0,0-.28.23,2.22,2.22,0,0,0-.44.49.76.76,0,0,0,0,1,3.56,3.56,0,0,0,1.21.89,15,15,0,0,0,1.53.65,9.67,9.67,0,0,1-1.68-.22,3.67,3.67,0,0,1-1.65-.75,1.71,1.71,0,0,1-.58-.94,1.91,1.91,0,0,1,.15-1.12,3.82,3.82,0,0,1,.53-.85c.1-.12.21-.24.32-.35a3,3,0,0,1,.36-.34l-.29.62L65,106.91l-.43-2.34c-.14-.78-.29-1.56-.47-2.32s-.33-1.53-.55-2.26a10.09,10.09,0,0,0-.77-2l-.22-.34a1,1,0,0,0-.18-.2s-.09-.08-.12-.11c-.23-.15-.25-.18-.36-.15s-.4.3-.57.59a8.77,8.77,0,0,0-.49,1C60.56,99.51,60.31,100.28,60.09,101.07Z"/><path class="cls-9" d="M136.19,101.07c-.22-.79-.46-1.56-.74-2.3a10.76,10.76,0,0,0-.48-1c-.18-.29-.42-.56-.57-.59s-.13,0-.36.15c0,0-.14.1-.12.11a1.65,1.65,0,0,0-.19.2c0,.08-.13.2-.21.34a9.52,9.52,0,0,0-.77,2c-.22.73-.4,1.49-.56,2.26s-.32,1.54-.46,2.32l-.43,2.34-.41,2.36-.3-.62a4.15,4.15,0,0,1,.37.34c.11.11.22.23.32.35a3.82,3.82,0,0,1,.53.85,2,2,0,0,1,.14,1.12,1.69,1.69,0,0,1-.57.94,3.72,3.72,0,0,1-1.65.75,9.8,9.8,0,0,1-1.68.22,14.78,14.78,0,0,0,1.52-.65,3.61,3.61,0,0,0,1.22-.89.77.77,0,0,0,0-1,2.87,2.87,0,0,0-.44-.49l-.28-.23-.28-.18-.3-.16v-.46c0-.83,0-1.64.07-2.46s.12-1.63.23-2.45.25-1.62.41-2.44.41-1.61.68-2.42A9.73,9.73,0,0,1,132.06,97a4,4,0,0,1,.53-.61,3,3,0,0,1,.26-.21c.17-.13.25-.15.38-.24a2.27,2.27,0,0,1,.9-.26,1.63,1.63,0,0,1,1,.3A2.64,2.64,0,0,1,136,97.3a6,6,0,0,1,.25,1.28A9.86,9.86,0,0,1,136.19,101.07Z"/><path class="cls-9" d="M100.06,92.46c0,1.51,0,3,.07,4.43,0,.73.09,1.44.19,2.15a20.23,20.23,0,0,0,.34,2.09A15.92,15.92,0,0,0,102,105c.16.31.32.61.5.89a8.56,8.56,0,0,0,1.2,1.65,9.87,9.87,0,0,0,.7.75l.77.83-.88.43c-1.05.51-2.13,1-3.21,1.46s-2.17.91-3.3,1.3c.92-.75,1.88-1.44,2.84-2.12s1.94-1.34,2.93-2l-.1,1.26a9.74,9.74,0,0,1-1.8-1.59,11.55,11.55,0,0,1-.76-.94c-.23-.33-.44-.67-.64-1a13.38,13.38,0,0,1-1.45-4.51,17.08,17.08,0,0,1,0-4.63,18.8,18.8,0,0,1,.47-2.23A12.48,12.48,0,0,1,100.06,92.46Z"/><path class="cls-10" d="M88.55,118.64s11.63,9,20.77-1"/><path class="cls-7" d="M104.15,89a5.64,5.64,0,0,1,.33-1,10.71,10.71,0,0,1,1.42-2.39A10,10,0,0,1,109,82.93a9.14,9.14,0,0,1,2.28-.87,8.6,8.6,0,0,1,2.59-.2,9.17,9.17,0,0,1,2.51.57,9.35,9.35,0,0,1,2.12,1.15A10.86,10.86,0,0,1,120.15,85a11.27,11.27,0,0,1,1.16,1.47,8.48,8.48,0,0,1,.78,1.36,6.14,6.14,0,0,1,.48,1.1,8.55,8.55,0,0,1,.33,1s-.36-.19-.9-.54-1.3-.86-2.19-1.39c-.43-.29-.91-.55-1.4-.84s-1-.53-1.54-.76a13.6,13.6,0,0,0-1.62-.58,8.4,8.4,0,0,0-1.64-.28,7.59,7.59,0,0,0-1.65,0,10.79,10.79,0,0,0-1.65.35,19.12,19.12,0,0,0-3,1.26c-.91.46-1.68.92-2.24,1.25Z"/><path class="cls-7" d="M75.54,90.38a4.79,4.79,0,0,1,.06-1.07,8.65,8.65,0,0,1,.87-2.72,8,8,0,0,1,5.2-4.19,8.62,8.62,0,0,1,2.62-.23,10.46,10.46,0,0,1,2.49.47,13.18,13.18,0,0,1,2.15,1A14.19,14.19,0,0,1,92.07,86a11.38,11.38,0,0,1,1,1.18,8.45,8.45,0,0,1,.7,1,8.92,8.92,0,0,1,.54.91,9.45,9.45,0,0,1-1-.34l-2.46-1c-1-.39-2.11-.83-3.28-1.21l-.88-.27c-.3-.07-.59-.13-.89-.22a11.86,11.86,0,0,0-1.75-.24,7.63,7.63,0,0,0-1.66.05,9,9,0,0,0-1.55.4,10.24,10.24,0,0,0-2.72,1.61,19.22,19.22,0,0,0-1.88,1.72Z"/><path class="cls-7" d="M86.1,97.15c0,2.51-.7,4.54-1.55,4.54S83,99.66,83,97.15s.69-4.53,1.55-4.53S86.1,94.65,86.1,97.15Z"/><path class="cls-7" d="M113.13,96.54c0,2.5-.69,4.53-1.55,4.53S110,99,110,96.54s.7-4.54,1.55-4.54S113.13,94,113.13,96.54Z"/></g></g></g></svg>