<svg xmlns="http://www.w3.org/2000/svg" xmlns:xlink="http://www.w3.org/1999/xlink" viewBox="0 0 192.17 192.61"><defs><style>.cls-1{fill:none;}.cls-2{opacity:0.2;}.cls-3{fill:#c1db4d;}.cls-4{clip-path:url(#clip-path);}.cls-5{fill:#f89b6a;}.cls-6{fill:#ef8050;}.cls-7{fill:#2c2429;}.cls-8{fill:#db5223;}.cls-9{fill:#161114;}.cls-10{fill:#d84848;}</style><clipPath id="clip-path"><path class="cls-1" d="M27.7,163.18Q0,134.19,0,95.23A86.81,86.81,0,0,1,14.27,47.18,101.09,101.09,0,0,1,51.94,12.55,102.87,102.87,0,0,1,101.28,0q38.09,0,64.49,25.11t26.4,67.52q0,41.55-27.26,70.55t-68,29Q55.4,192.19,27.7,163.18Z"/></clipPath></defs><g id="Layer_2" data-name="Layer 2"><g id="OBJECTS"><g class="cls-2"><path class="cls-3" d="M27.7,163.18Q0,134.19,0,95.23A86.81,86.81,0,0,1,14.27,47.18,101.09,101.09,0,0,1,51.94,12.55,102.87,102.87,0,0,1,101.28,0q38.09,0,64.49,25.11t26.4,67.52q0,41.55-27.26,70.55t-68,29Q55.4,192.19,27.7,163.18Z"/></g><g class="cls-4"><path class="cls-5" d="M114.05,137.45c-6.58-5.17-.47-34.78-.47-34.78H76.28s6.11,29.61-.47,34.78S19.4,142.15,24.1,192H165.76C170.46,142.15,120.63,142.62,114.05,137.45Z"/><path class="cls-6" d="M112.15,134.5c-3.26-9.12,1.43-31.83,1.43-31.83H76.28S78.8,114.88,78.86,125C88.25,131.79,100.05,134.48,112.15,134.5Z"/><path class="cls-6" d="M55.4,88.79c1.75,6.41,6.69,12.1,10.57,11s5.24-8.47,3.49-14.89-6-9.41-9.84-8.35S53.64,82.37,55.4,88.79Z"/><path class="cls-6" d="M134.46,88.79c-1.75,6.41-6.69,12.1-10.57,11s-5.24-8.47-3.49-14.89,6-9.41,9.84-8.35S136.21,82.37,134.46,88.79Z"/><path class="cls-5" d="M62.74,77.28c0,23.5,14.52,47.48,32.43,47.48s32.44-24,32.44-47.48S113.09,39.67,95.17,39.67,62.74,53.78,62.74,77.28Z"/><path class="cls-7" d="M66.55,92.79l-3,.24s-.94-16.93-5.17-16c0,0-9.4-23.5.7-34.55,11.24-12.28,18.34,3.06,18.34,3.06s-3.53,16.92-12.7,20.92Z"/><path class="cls-7" d="M119.91,57.77s-1.17,10.81,4.94,12.69V89.74l1.88.47s3.76-19.28,3.76-28.91S119.91,57.77,119.91,57.77Z"/><path class="cls-7" d="M74.78,50s9.87,18.1,39,16.46c0,0-19.74-3.53-27.74-14.34,0,0,13.87,14.81,38.08,12.46l-3.76-5.41a12.39,12.39,0,0,0,15.28,5.64S138.25,34,105.81,24.63C79.36,17,66.79,38,67.5,49.78S74.78,50,74.78,50Z"/><path class="cls-7" d="M67.26,67.64c.6-.63,1.12-1.33,1.65-2s1-1.41,1.46-2.15.87-1.48,1.27-2.24l.56-1.16c.2-.38.34-.78.51-1.17s.34-.79.47-1.19l.42-1.21c.22-.82.49-1.62.64-2.46.08-.41.19-.82.25-1.24l.18-1.25c.13-.84.12-1.68.2-2.52l.53-6.24L76.57,49a12.92,12.92,0,0,0,.66,2.16,10.14,10.14,0,0,0,.46,1.07,7.38,7.38,0,0,0,.53,1c.19.34.36.69.58,1l.66,1c.42.67,1,1.22,1.47,1.85s1.1,1.13,1.65,1.69,1.22,1,1.83,1.53a7.63,7.63,0,0,0,1,.7l1,.66c.34.22.66.46,1,.66l1.06.56c.72.36,1.4.8,2.14,1.1l2.23.95a19.89,19.89,0,0,0,2.28.81l2.31.77,2.38.58c.79.2,1.58.43,2.38.6,1.61.28,3.22.55,4.84.88-1.64,0-3.29-.16-4.94-.26-.82-.08-1.64-.22-2.46-.33l-2.46-.39L94.7,67a20.13,20.13,0,0,1-2.41-.7l-2.36-.85c-.79-.29-1.52-.72-2.29-1.07l-1.13-.56c-.37-.2-.72-.44-1.09-.66a20.84,20.84,0,0,1-2.11-1.4c-.66-.54-1.35-1-2-1.61s-1.24-1.18-1.8-1.82a23.93,23.93,0,0,1-1.59-2l-.71-1.07c-.23-.36-.42-.75-.63-1.13A11.34,11.34,0,0,1,76,53c-.16-.39-.36-.78-.49-1.19a13.53,13.53,0,0,1-.67-2.58l1.71-.07c-.11.89-.14,1.79-.31,2.68L76,53.11c-.08.44-.23.87-.34,1.3-.2.87-.54,1.71-.82,2.55a26.63,26.63,0,0,1-1.11,2.43c-.21.4-.39.8-.62,1.18l-.68,1.14c-.49.74-1,1.46-1.55,2.15A22.53,22.53,0,0,1,67.26,67.64Z"/><path class="cls-7" d="M54.33,46.49A22.48,22.48,0,0,1,57,41.94a15.66,15.66,0,0,1,3.8-3.73,10.56,10.56,0,0,1,1.17-.69A9.53,9.53,0,0,1,63.22,37a7.75,7.75,0,0,1,1.35-.3,7.26,7.26,0,0,1,1.4-.06,9.11,9.11,0,0,1,1.38.16,12.16,12.16,0,0,1,1.34.4,11,11,0,0,1,1.26.56c.41.21.79.47,1.19.7l-.94.32a22.29,22.29,0,0,1,2.33-4.84,24.78,24.78,0,0,1,3.31-4.2,25.13,25.13,0,0,1,9-5.83A28.15,28.15,0,0,1,90,22.5,33.83,33.83,0,0,1,95.28,22q1.34,0,2.67.06c.88.08,1.77.11,2.64.24a48.7,48.7,0,0,1,5.22.91c.85.19,1.69.4,2.55.67s1.7.54,2.53.84,1.64.66,2.46,1,1.61.73,2.39,1.16a38.33,38.33,0,0,1,4.49,2.8,45.59,45.59,0,0,1,4.07,3.38,40.7,40.7,0,0,1,6.61,8.15,38.33,38.33,0,0,1,4.28,9.51A36.51,36.51,0,0,0,133,46a42.84,42.84,0,0,0-2.72-4.39A44.88,44.88,0,0,0,123.47,34a43.5,43.5,0,0,0-4-3.11A40.41,40.41,0,0,0,115,28.31c-.74-.4-1.54-.71-2.3-1.07s-1.57-.65-2.39-.9-1.6-.55-2.42-.75-1.64-.43-2.49-.62a49.56,49.56,0,0,0-5-.83c-.84-.12-1.69-.14-2.53-.21s-1.7-.05-2.54-.05a33.7,33.7,0,0,0-5,.44,26.88,26.88,0,0,0-4.85,1.29A23.84,23.84,0,0,0,77,30.89a27.13,27.13,0,0,0-3.26,3.84,21.61,21.61,0,0,0-2.35,4.42l-.28.74-.66-.42c-.36-.22-.69-.47-1.06-.67a7.58,7.58,0,0,0-1.11-.54,8,8,0,0,0-1.16-.4,8.35,8.35,0,0,0-1.2-.2,6.32,6.32,0,0,0-1.23,0,8.28,8.28,0,0,0-1.21.21,8.19,8.19,0,0,0-1.18.4,9.12,9.12,0,0,0-1.13.56,15.6,15.6,0,0,0-3.87,3.35A26.67,26.67,0,0,0,54.33,46.49Z"/><path class="cls-8" d="M56.13,86.05a11.66,11.66,0,0,1,.07-2.5,6.67,6.67,0,0,1,.3-1.27,2.57,2.57,0,0,1,.82-1.22,1.5,1.5,0,0,1,.9-.25,1.88,1.88,0,0,1,.81.25,1.75,1.75,0,0,1,.34.22,2.14,2.14,0,0,1,.25.21,3.15,3.15,0,0,1,.49.58,9.67,9.67,0,0,1,1.13,2.37,27.44,27.44,0,0,1,1.09,4.92,43.42,43.42,0,0,1,.4,5v.29l-.21.14a4.1,4.1,0,0,0-.59.46,2.69,2.69,0,0,0-.46.56A.92.92,0,0,0,61.55,97a3.64,3.64,0,0,0,1.31.88,13.52,13.52,0,0,0,1.58.59,10,10,0,0,1-1.69-.29,3.71,3.71,0,0,1-1.61-.78,1.67,1.67,0,0,1-.53-.89,1.82,1.82,0,0,1,.16-1,3.74,3.74,0,0,1,.52-.81A5.32,5.32,0,0,1,62,94l-.21.43c-.22-1.6-.48-3.22-.77-4.82-.13-.8-.29-1.6-.46-2.38s-.35-1.58-.58-2.33a10.18,10.18,0,0,0-.85-2.13l-.27-.39-.2-.21s-.12-.08-.17-.13c-.26-.17-.42-.21-.61-.12a1.76,1.76,0,0,0-.63.72,10.62,10.62,0,0,0-.46,1.08C56.51,84.45,56.31,85.24,56.13,86.05Z"/><path class="cls-8" d="M133.7,86.05a20.63,20.63,0,0,0-.63-2.37,8.73,8.73,0,0,0-.45-1.08,1.76,1.76,0,0,0-.63-.72c-.19-.09-.35,0-.62.12-.05,0-.15.11-.16.13s-.17.16-.2.21l-.27.39a9.66,9.66,0,0,0-.85,2.13c-.23.75-.42,1.54-.58,2.33s-.33,1.58-.47,2.38c-.28,1.6-.54,3.22-.77,4.82l-.2-.43a5.32,5.32,0,0,1,.68.66,3.74,3.74,0,0,1,.52.81,1.82,1.82,0,0,1,.15,1,1.6,1.6,0,0,1-.52.89,3.77,3.77,0,0,1-1.61.78,10,10,0,0,1-1.69.29,14.23,14.23,0,0,0,1.58-.59,3.73,3.73,0,0,0,1.31-.88.94.94,0,0,0,.08-1.18,2.69,2.69,0,0,0-.46-.56,4.1,4.1,0,0,0-.59-.46l-.22-.14v-.29a45.8,45.8,0,0,1,.39-5,28.36,28.36,0,0,1,1.1-4.92,10,10,0,0,1,1.12-2.37,3.6,3.6,0,0,1,.49-.58,2.18,2.18,0,0,1,.26-.21,1.75,1.75,0,0,1,.34-.22,1.84,1.84,0,0,1,.81-.25,1.45,1.45,0,0,1,.89.25,2.52,2.52,0,0,1,.83,1.22,6,6,0,0,1,.29,1.27A10.49,10.49,0,0,1,133.7,86.05Z"/><path class="cls-8" d="M96.88,77.28c0,1.83,0,3.62.11,5.4,0,.89.11,1.77.22,2.65s.2,1.74.37,2.6.33,1.71.57,2.54c.14.41.25.83.39,1.23s.29.81.45,1.21a21,21,0,0,0,1.15,2.27,17.73,17.73,0,0,0,1.51,2l.59.69-.69.41c-1.07.63-2.16,1.23-3.25,1.82s-2.2,1.16-3.34,1.68c.92-.84,1.89-1.63,2.85-2.41s2-1.54,3-2.28l-.1,1.1c-.35-.33-.71-.64-1-1s-.6-.74-.9-1.12a14.86,14.86,0,0,1-1.42-2.48,17.44,17.44,0,0,1-1-2.68,23.64,23.64,0,0,1-.55-2.76,26.41,26.41,0,0,1-.07-5.55c.1-.91.22-1.82.41-2.72A18.55,18.55,0,0,1,96.88,77.28Z"/><path class="cls-8" d="M85.12,106.9s1.38.37,3.4.79c.51.09,1.06.21,1.64.3s1.18.18,1.81.27,1.28.1,1.93.2,1.33.08,2,.05a16.12,16.12,0,0,0,2-.09l1-.09c.32,0,.62-.11.93-.16s.61-.12.91-.16l.85-.23a10.46,10.46,0,0,0,1.55-.48l1.32-.48c.37-.19.71-.34,1-.47.56-.26.9-.39.9-.39s-.24.26-.68.7c-.23.21-.5.48-.83.78s-.76.54-1.21.84a7.9,7.9,0,0,1-1.56.82l-.88.4-1,.28a10.72,10.72,0,0,1-2.07.44,17.63,17.63,0,0,1-2.18.17c-.73,0-1.45-.08-2.17-.13s-1.4-.21-2-.37a17.3,17.3,0,0,1-1.87-.54,15.64,15.64,0,0,1-1.62-.64A13.82,13.82,0,0,1,85.12,106.9Z"/><path class="cls-9" d="M98.29,75.4a2,2,0,0,1,.06-.3,4.68,4.68,0,0,1,.25-.83A8.59,8.59,0,0,1,99.14,73a10.69,10.69,0,0,1,1-1.49A11.07,11.07,0,0,1,101.58,70a11.82,11.82,0,0,1,1-.72l.52-.35.57-.29c.39-.18.78-.39,1.2-.54s.87-.26,1.32-.37a6.2,6.2,0,0,1,1.37-.19,10.78,10.78,0,0,1,1.39-.06l1.37.16.68.1.63.19a10.82,10.82,0,0,1,2.39.94,15.93,15.93,0,0,1,2,1.2c.57.46,1.1.91,1.57,1.34a7.86,7.86,0,0,1,1.16,1.27c.33.39.59.76.8,1,.43.6.64,1,.64,1s-.43-.12-1.1-.37c-.34-.13-.75-.28-1.19-.48a16,16,0,0,0-1.5-.61c-.55-.19-1.13-.42-1.73-.67s-1.26-.37-1.89-.6a15.14,15.14,0,0,0-2-.47l-.5-.12-.5,0-1-.09a8.16,8.16,0,0,0-1,0,5.32,5.32,0,0,0-1,.07c-.32.06-.64.1-1,.14s-.61.18-.92.25l-.47.12c-.14.07-.29.12-.43.18-.29.12-.59.21-.87.34-.54.28-1.1.52-1.57.82s-.93.56-1.34.81-.75.51-1,.73-.52.38-.67.5Z"/><path class="cls-9" d="M69.14,75.4a2,2,0,0,1,.06-.3,5.72,5.72,0,0,1,.25-.83A8.76,8.76,0,0,1,70,73a9.74,9.74,0,0,1,1-1.49A11.69,11.69,0,0,1,72.43,70c.29-.27.63-.47,1-.72l.51-.35.57-.29c.39-.18.78-.39,1.21-.54s.86-.26,1.31-.37a6.28,6.28,0,0,1,1.37-.19,10.78,10.78,0,0,1,1.39-.06l1.37.16.68.1.64.19a11,11,0,0,1,2.39.94,15.79,15.79,0,0,1,2,1.2c.58.46,1.1.91,1.57,1.34a8.45,8.45,0,0,1,1.17,1.27c.32.39.58.76.8,1,.42.6.63,1,.63,1s-.42-.12-1.1-.37c-.33-.13-.75-.28-1.19-.48a15.76,15.76,0,0,0-1.49-.61c-.56-.19-1.14-.42-1.73-.67s-1.26-.37-1.9-.6a15,15,0,0,0-2-.47l-.5-.12-.51,0-1-.09a8.18,8.18,0,0,0-1,0,5.22,5.22,0,0,0-1,.07c-.32.06-.64.1-1,.14s-.62.18-.93.25l-.46.12-.44.18c-.29.12-.59.21-.87.34-.54.28-1.09.52-1.57.82s-.93.56-1.34.81-.75.51-1,.73-.52.38-.67.5Z"/><path class="cls-9" d="M82.64,82.06c0,2.55-.71,4.62-1.58,4.62s-1.58-2.07-1.58-4.62.71-4.62,1.58-4.62S82.64,79.51,82.64,82.06Z"/><path class="cls-9" d="M110.2,81.43c0,2.56-.71,4.62-1.58,4.62S107,84,107,81.43s.71-4.62,1.58-4.62S110.2,78.88,110.2,81.43Z"/><path class="cls-3" d="M124.09,138.86s-5.28,16.32-29.16,16.45c-23.89-.13-29.16-16.45-29.16-16.45C11.72,150.62,23.3,192,23.3,192l71.35.46h.56l71.35-.46S178.14,150.62,124.09,138.86Z"/><path class="cls-10" d="M60,137.78l9.49,54.83-35.6-.43V151.93S46.36,142.14,60,137.78Z"/><path class="cls-10" d="M129.6,137.78l-9.45,54.83,35.56-.43V151.93S143.2,142.14,129.6,137.78Z"/></g></g></g></svg>