<svg xmlns="http://www.w3.org/2000/svg" xmlns:xlink="http://www.w3.org/1999/xlink" viewBox="0 0 185.81 190.95"><defs><style>.cls-1{fill:none;}.cls-2{fill:#e1f0ff;}.cls-3{clip-path:url(#clip-path);}.cls-4{fill:#db5223;}.cls-5{fill:#ffb899;}.cls-6{fill:#efa084;}.cls-7{fill:#86c1e2;}.cls-8{fill:#f77b59;}.cls-9{fill:#161114;}</style><clipPath id="clip-path"><path class="cls-1" d="M91.32,190.08q-39-.87-65.83-27.7a84.54,84.54,0,0,1-23.25-42.9A98.48,98.48,0,0,1,4.33,69.73a100.13,100.13,0,0,1,25.32-42.6Q55.87.93,91.32,0T156,28.32q28.6,28.6,29.8,67.33T159,162.38Q130.35,191,91.32,190.08Z"/></clipPath></defs><g id="Layer_2" data-name="Layer 2"><g id="OBJECTS"><path class="cls-2" d="M91.32,190.08q-39-.87-65.83-27.7a84.54,84.54,0,0,1-23.25-42.9A98.48,98.48,0,0,1,4.33,69.73a100.13,100.13,0,0,1,25.32-42.6Q55.87.93,91.32,0T156,28.32q28.6,28.6,29.8,67.33T159,162.38Q130.35,191,91.32,190.08Z"/><g class="cls-3"><path class="cls-4" d="M76.22,33S59.36,25.66,50.65,52.59s-16,63.65,6.26,74.26l-1.63-6.53s1.9,6,13,8.16,26.93,3.81,26.93,3.81Z"/><path class="cls-4" d="M76.66,34.52a8,8,0,0,0-1.24-.42,14.65,14.65,0,0,0-3.65-.56,17.11,17.11,0,0,0-2.62.1,16.34,16.34,0,0,0-3,.73A17.56,17.56,0,0,0,63,35.83a20.39,20.39,0,0,0-3.07,2.35l-.75.69-.38.35-.34.4-1.39,1.65a17.23,17.23,0,0,0-1.28,1.81c-.4.64-.84,1.27-1.24,1.93-.69,1.4-1.5,2.78-2.14,4.28s-1.28,3.05-1.86,4.65a213.83,213.83,0,0,0-6.31,20.45,112.74,112.74,0,0,0-3.55,21,64.84,64.84,0,0,0,.11,9.79,37.68,37.68,0,0,0,1.77,8.56,28,28,0,0,0,3.24,6.63,23.46,23.46,0,0,0,3.82,4.25,21.8,21.8,0,0,0,3,2.19l1.12.69-1.15-.64a20,20,0,0,1-3.08-2.08,23.39,23.39,0,0,1-4-4.17A26.7,26.7,0,0,1,42,114c-1.9-5.21-2.63-11.74-2.24-18.62a114.18,114.18,0,0,1,3.43-21.25C45,67,47.29,60.06,49.65,53.62c.61-1.61,1.3-3.17,1.94-4.7s1.54-2.91,2.27-4.31c.42-.67.88-1.31,1.31-2a16.62,16.62,0,0,1,1.35-1.83c.49-.56,1-1.11,1.45-1.66l.36-.4.4-.35.79-.7a19.54,19.54,0,0,1,3.21-2.34A18,18,0,0,1,66,34a16.34,16.34,0,0,1,3.08-.65,18.35,18.35,0,0,1,2.67,0,14.15,14.15,0,0,1,3.64.71A7.94,7.94,0,0,1,76.66,34.52Z"/><path class="cls-4" d="M116.25,33s16.86-7.34,25.57,19.59,16,63.65-6.26,74.26l1.63-6.53s-1.9,6-13.06,8.16-26.92,3.81-26.92,3.81Z"/><path class="cls-4" d="M115.81,34.52A7.94,7.94,0,0,1,117,34a14.15,14.15,0,0,1,3.64-.71,18.35,18.35,0,0,1,2.67,0,16.34,16.34,0,0,1,3.08.65,18,18,0,0,1,3.31,1.39A19.54,19.54,0,0,1,133,37.72l.79.7.4.35.36.4c.47.55,1,1.1,1.45,1.66a16.62,16.62,0,0,1,1.35,1.83c.43.64.89,1.28,1.31,2,.73,1.4,1.58,2.8,2.27,4.31s1.33,3.09,1.93,4.7a213.09,213.09,0,0,1,6.48,20.5,113.39,113.39,0,0,1,3.44,21.25c.39,6.88-.34,13.41-2.24,18.62a26.7,26.7,0,0,1-3.49,6.66,23.39,23.39,0,0,1-4,4.17,20,20,0,0,1-3.08,2.08l-1.15.64,1.12-.69a21.8,21.8,0,0,0,3-2.19,23.46,23.46,0,0,0,3.82-4.25,28,28,0,0,0,3.24-6.63,37.68,37.68,0,0,0,1.77-8.56,64.84,64.84,0,0,0,.11-9.79,113.57,113.57,0,0,0-3.55-21,213.83,213.83,0,0,0-6.31-20.45c-.58-1.6-1.27-3.12-1.86-4.65s-1.45-2.88-2.14-4.28c-.4-.66-.84-1.29-1.25-1.93a14.71,14.71,0,0,0-1.28-1.81L134,39.62l-.34-.4-.38-.35-.75-.69a20,20,0,0,0-3.08-2.35,17.17,17.17,0,0,0-3.17-1.46,16.34,16.34,0,0,0-3-.73,17.16,17.16,0,0,0-2.62-.1,14.65,14.65,0,0,0-3.65.56A8,8,0,0,0,115.81,34.52Z"/><path class="cls-5" d="M113,133.77c-6.31-5.17-.45-34.79-.45-34.79H76.75s5.86,29.62-.45,34.79-47.77,4.55-44,56.64H154C158.69,138.18,119.28,138.94,113,133.77Z"/><path class="cls-6" d="M111.15,130.81C108,121.69,112.52,99,112.52,99H76.75a142,142,0,0,1,2.47,22.32C88.23,128.11,99.54,130.8,111.15,130.81Z"/><path class="cls-6" d="M104.26,163.57c-22.86,0-45.82-.56-68.72-.45a53.6,53.6,0,0,0-3.27,15.57c18.62,5.79,66.56,17,122.06,1.15a57,57,0,0,0-2.65-16.27Z"/><path class="cls-7" d="M137.37,142.49c-3.84-1.8-8.38-4.29-13.77-5.13,0,0-5.27,16.32-29.16,16.44-23.89-.12-29.16-16.44-29.16-16.44-5.94.82-10.91,3.38-15.06,5.3,2.05,6.89,5.79,23.69-.8,48l44.74.34h.56l43.41-.34C131.48,166.14,135.34,149.25,137.37,142.49Z"/><path class="cls-7" d="M62.35,162.21l2.93-24.85s-25-2.62-39.38,32.19c0,0,12.24,10.61,33.46,12.24Z"/><path class="cls-7" d="M126.75,162.21l-2.93-24.85s25-2.62,39.38,32.19c0,0-12.24,10.61-33.45,12.24Z"/><path class="cls-6" d="M54.91,87.28c1.75,6.42,6.69,12.11,10.57,11S70.72,89.85,69,83.44,63,74,59.13,75.08,53.16,80.86,54.91,87.28Z"/><path class="cls-6" d="M134,87.28c-1.75,6.42-6.69,12.11-10.57,11s-5.24-8.48-3.49-14.89,6-9.42,9.84-8.36S135.72,80.86,134,87.28Z"/><path class="cls-5" d="M62.25,75.77c0,23.5,14.52,47.48,32.43,47.48s32.44-24,32.44-47.48S112.6,38.16,94.68,38.16,62.25,52.28,62.25,75.77Z"/><path class="cls-4" d="M75.68,48.24s14.41,31.55,43,33.45c-16-12-17.41-21.48-17.41-21.48a51.7,51.7,0,0,0,22.57,21.48,25.46,25.46,0,0,0,1.64,10.88s3.8-8.43,3.26-17.4c0,0,5.44.81,6,7.34,0,0,15.51-20.94,1.09-44.07C122.83,17.65,66.16,9.07,75.68,48.24Z"/><path class="cls-4" d="M83,35.72S70.28,26.2,59.09,37.9c-6,6.26-11.16,23.94.54,38.63,0,0-1.63,11.42,4.35,16,0,0-5.17-27.47,16.05-40.25S83,35.72,83,35.72Z"/><path class="cls-8" d="M96.57,85.23c.2.4.38.8.55,1.2s.37.77.53,1.15.38.75.54,1.13l.59,1.08.61,1c.24.33.45.67.67,1l.73.94.79.89.73.84-.87.58c-.52.34-1.06.64-1.6,1s-1.09.59-1.63.89a26.85,26.85,0,0,1-3.47,1.49,26.71,26.71,0,0,1,2.73-2.6c.49-.39,1-.8,1.46-1.16s1-.75,1.5-1.1L100.3,95l-1-1c-.28-.36-.54-.74-.81-1.11s-.47-.77-.67-1.17l-.54-1.24-.4-1.28c-.11-.43-.17-.88-.26-1.31s-.09-.89-.13-1.32S96.55,85.68,96.57,85.23Z"/><path class="cls-8" d="M85.34,104s.32.22.88.55c.28.18.63.37,1,.61s.85.45,1.33.72,1,.53,1.6.76l.88.37.93.33c.62.26,1.31.35,2,.56l1,.16.51.08H96l1,.06,1-.09a11.43,11.43,0,0,0,2-.36l.48-.11a4.22,4.22,0,0,1,.45-.18l.87-.34a10.3,10.3,0,0,0,1.56-.77,10.91,10.91,0,0,0,1.3-.76l1-.67c.55-.37.89-.57.89-.57s-.22.31-.63.84c-.2.26-.45.59-.76.95a7.09,7.09,0,0,1-1.14,1.1,8,8,0,0,1-1.53,1.13l-.92.51-.48.27-.53.17a9.27,9.27,0,0,1-2.26.59l-1.19.14-1.21,0-.61,0-.59-.11-1.17-.23c-.38-.1-.75-.24-1.11-.36a7.42,7.42,0,0,1-1-.42l-1-.47-.88-.54A12.82,12.82,0,0,1,88,106.73,13.06,13.06,0,0,1,85.34,104Z"/><path class="cls-9" d="M97.8,77.16a4.9,4.9,0,0,1,.35-1.1,9.13,9.13,0,0,1,.58-1.2,9.32,9.32,0,0,1,1-1.44,11.52,11.52,0,0,1,1.47-1.51c.29-.25.63-.45,1-.69l.51-.34.56-.28a12.6,12.6,0,0,1,1.19-.52c.42-.12.85-.25,1.29-.35a6.1,6.1,0,0,1,1.34-.19,10.52,10.52,0,0,1,1.37-.05l1.35.15c.22,0,.44,0,.66.09l.63.2a10.22,10.22,0,0,1,2.36.9,15.25,15.25,0,0,1,2,1.17c.58.44,1.1.88,1.58,1.29a7.53,7.53,0,0,1,1.19,1.22c.33.38.6.73.82,1,.45.57.67.92.67.92s-.41-.13-1.07-.41c-.33-.15-.73-.31-1.16-.52a16,16,0,0,0-1.47-.66c-.55-.21-1.13-.44-1.73-.7s-1.26-.4-1.9-.64a13.76,13.76,0,0,0-2-.51l-.51-.12-.51,0-1-.1a7,7,0,0,0-1,0,4.76,4.76,0,0,0-1,.07l-1,.16c-.33.07-.63.19-1,.27l-.47.13-.44.19c-.29.12-.59.23-.87.36-.54.3-1.1.54-1.57.86s-.91.61-1.31.87-.73.53-1,.76-.5.39-.64.52Z"/><path class="cls-9" d="M68.65,77.16a5.68,5.68,0,0,1,.35-1.1,9.13,9.13,0,0,1,.58-1.2,8.77,8.77,0,0,1,1-1.44,10.37,10.37,0,0,1,1.47-1.51c.28-.25.62-.45,1-.69l.5-.34.57-.28a11.39,11.39,0,0,1,1.18-.52c.42-.12.86-.25,1.29-.35a6.1,6.1,0,0,1,1.35-.19,10.31,10.31,0,0,1,1.36-.05l1.35.15c.22,0,.45,0,.66.09l.63.2a10.48,10.48,0,0,1,2.37.9,15.11,15.11,0,0,1,2,1.17c.58.44,1.11.88,1.58,1.29A7.53,7.53,0,0,1,89,74.51c.34.38.6.73.83,1,.44.57.66.92.66.92s-.41-.13-1.07-.41c-.33-.15-.73-.31-1.16-.52a16,16,0,0,0-1.47-.66c-.55-.21-1.13-.44-1.72-.7s-1.27-.4-1.91-.64a13.45,13.45,0,0,0-2-.51l-.51-.12-.51,0-1-.1a6.79,6.79,0,0,0-1,0,4.86,4.86,0,0,0-1,.07l-1,.16c-.32.07-.63.19-.94.27l-.47.13-.45.19c-.29.12-.59.23-.87.36-.54.3-1.1.54-1.57.86s-.9.61-1.31.87-.73.53-1,.76-.5.39-.64.52Z"/><path class="cls-9" d="M82.15,84.9c0,2.56-.7,4.63-1.58,4.63S79,87.46,79,84.9s.71-4.62,1.58-4.62S82.15,82.35,82.15,84.9Z"/><path class="cls-9" d="M109.71,84.28c0,2.55-.71,4.62-1.58,4.62s-1.58-2.07-1.58-4.62.71-4.62,1.58-4.62S109.71,81.72,109.71,84.28Z"/></g></g></g></svg>