<svg xmlns="http://www.w3.org/2000/svg" xmlns:xlink="http://www.w3.org/1999/xlink" viewBox="0 0 188.1 192.46"><defs><style>.cls-1{fill:none;}.cls-2{opacity:0.1;}.cls-3{fill:#d84848;}.cls-4{clip-path:url(#clip-path);}.cls-5{fill:#f89b6a;}.cls-6{fill:#ef8050;}.cls-7{clip-path:url(#clip-path-2);}.cls-8{fill:#fff;}.cls-9{fill:#723021;}.cls-10{fill:#db5223;}.cls-11{fill:#161114;}</style><clipPath id="clip-path"><path class="cls-1" d="M95.65,0q39.53.89,66.65,28.05A85.56,85.56,0,0,1,185.83,71.5a99.62,99.62,0,0,1-2.11,50.36A101.37,101.37,0,0,1,158.08,165q-26.54,26.53-62.42,27.44T30.21,163.78Q1.26,134.83.05,95.63T27.19,28.07Q56.14-.88,95.65,0Z"/></clipPath><clipPath id="clip-path-2"><path class="cls-1" d="M122.75,137.46s-5.27,16.32-29.16,16.45c-23.89-.13-29.16-16.45-29.16-16.45C10.38,149.21,22,190.58,22,190.58l71.35.47h.56l71.35-.47S176.8,149.21,122.75,137.46Z"/></clipPath></defs><g id="Layer_2" data-name="Layer 2"><g id="OBJECTS"><g class="cls-2"><path class="cls-3" d="M95.65,0q39.53.89,66.65,28.05A85.56,85.56,0,0,1,185.83,71.5a99.62,99.62,0,0,1-2.11,50.36A101.37,101.37,0,0,1,158.08,165q-26.54,26.53-62.42,27.44T30.21,163.78Q1.26,134.83.05,95.63T27.19,28.07Q56.14-.88,95.65,0Z"/></g><g class="cls-4"><path class="cls-5" d="M112.71,136.05c-6.58-5.17-.47-34.79-.47-34.79H74.94s6.11,29.62-.47,34.79-56.41,4.7-51.71,54.53H164.42C169.12,140.75,119.29,141.22,112.71,136.05Z"/><path class="cls-6" d="M110.81,133.09c-3.26-9.11,1.43-31.83,1.43-31.83H74.94s2.52,12.21,2.58,22.32C86.91,130.39,98.71,133.08,110.81,133.09Z"/><path class="cls-3" d="M122.75,137.46s-5.27,16.32-29.16,16.45c-23.89-.13-29.16-16.45-29.16-16.45C10.38,149.21,22,190.58,22,190.58l71.35.47h.56l71.35-.47S176.8,149.21,122.75,137.46Z"/><g class="cls-7"><rect class="cls-8" x="8.7" y="143.12" width="167.56" height="4.49"/><rect class="cls-8" x="8.7" y="155.82" width="167.56" height="4.49"/><rect class="cls-8" x="8.7" y="168.51" width="167.56" height="4.49"/><rect class="cls-8" x="8.7" y="181.21" width="167.56" height="4.49"/></g><path class="cls-6" d="M54.06,87.38c1.75,6.42,6.69,12.11,10.57,11.05S69.87,90,68.12,83.54s-6-9.41-9.84-8.35S52.3,81,54.06,87.38Z"/><path class="cls-6" d="M133.12,87.38c-1.75,6.42-6.69,12.11-10.57,11.05s-5.24-8.47-3.49-14.89,6-9.41,9.84-8.35S134.87,81,133.12,87.38Z"/><path class="cls-5" d="M61.4,75.88c0,23.49,14.52,47.48,32.43,47.48s32.44-24,32.44-47.48S111.75,38.27,93.83,38.27,61.4,52.38,61.4,75.88Z"/><path class="cls-9" d="M65.22,91.39l-3.06.24s-.94-16.93-5.17-16c0,0-16.37-23.21-2.59-34.81C67.14,30.1,76,44.14,76,44.14S72.5,61.07,63.34,65.06Z"/><path class="cls-9" d="M118.57,56.37s-2.46,5.43,3.65,7.31l1.29,24.65,1.88.47s3.76-19.27,3.76-28.91S118.57,56.37,118.57,56.37Z"/><path class="cls-9" d="M130.56,38.29c-7.82-2.9,10.88-13.42-2.9-20.31s-12.69,7.62-25,2.18S68.55,9.27,66,40.1l7.25,4.72s.54.42,1.53,1.13c6.08,4.35,37.63,25.85,56.5,15.91C145.07,54.61,140.36,41.92,130.56,38.29Z"/><path class="cls-9" d="M78.33,44.3l2.84,1.83c1.8,1.17,4.44,2.75,7.61,4.59,1.6.9,3.34,1.86,5.19,2.85s3.84,2,5.9,2.93,4.25,1.86,6.47,2.73a61.6,61.6,0,0,0,6.85,2.24,44.43,44.43,0,0,0,7,1.38,33.57,33.57,0,0,0,6.86.08,21.71,21.71,0,0,0,6.18-1.52l.7-.28c.19-.08.45-.22.68-.33a14.3,14.3,0,0,0,1.3-.69,17.14,17.14,0,0,0,2.32-1.51,14,14,0,0,0,3.3-3.51,10.35,10.35,0,0,0,1.4-3.48,11.08,11.08,0,0,0,.22-2.45c0-.57-.06-.88-.06-.88s.06.3.18.87a10.13,10.13,0,0,1,.08,2.53,10.88,10.88,0,0,1-1.12,3.8,13.34,13.34,0,0,1-3.2,4.08,18.59,18.59,0,0,1-2.38,1.81,14.07,14.07,0,0,1-1.32.8l-.71.38-.74.35a21.84,21.84,0,0,1-6.59,1.93,31.84,31.84,0,0,1-7.31.11,46.41,46.41,0,0,1-7.37-1.37,66.5,66.5,0,0,1-7.06-2.38c-2.28-.9-4.45-1.93-6.53-3a102.68,102.68,0,0,1-10.91-6.45c-3.08-2.07-5.51-4-7.2-5.3S78.33,44.3,78.33,44.3Z"/><path class="cls-9" d="M125.92,13.82l-.86-.22-1-.27-.66-.18-.75-.1a10.67,10.67,0,0,0-3.77-.05,8.73,8.73,0,0,0-4.28,2.05c-1.41,1.1-2.75,2.69-4.81,3.79a7.66,7.66,0,0,1-1.64.68l-.88.25a9,9,0,0,1-.91.1l-.93.08c-.3,0-.6-.05-.91-.07a9.3,9.3,0,0,1-1.83-.28l-1.79-.45c-.56-.18-1.13-.36-1.69-.52-1.12-.33-2.28-.62-3.43-.92a44.9,44.9,0,0,0-7.12-1.12,25.91,25.91,0,0,0-7.06.36,16.56,16.56,0,0,0-6.2,2.54A16,16,0,0,0,71,24a24.8,24.8,0,0,0-2.47,5.24,41.83,41.83,0,0,0-1.22,4.84c-.12.74-.25,1.43-.34,2.07s-.14,1.24-.2,1.78c-.13,1.07-.17,1.92-.23,2.5s-.07.89-.07.89,0-.31,0-.89-.12-1.44-.09-2.53q0-.81,0-1.8c0-.66.09-1.37.14-2.13s.18-1.57.28-2.42.34-1.74.54-2.66a23.09,23.09,0,0,1,2.28-5.74,16.88,16.88,0,0,1,4.63-5.26,17.74,17.74,0,0,1,6.88-3,28,28,0,0,1,7.64-.47,45.75,45.75,0,0,1,7.46,1.26c1.21.3,2.39.63,3.55,1,.59.19,1.14.39,1.7.58l1.6.46A8.66,8.66,0,0,0,109,17.4c1.77-.82,3.22-2.26,4.8-3.34.42-.26.79-.54,1.21-.76s.83-.42,1.24-.59l1.26-.36a8.83,8.83,0,0,1,1.22-.15,11.23,11.23,0,0,1,4,.44l.76.19.63.25,1,.41Z"/><path class="cls-9" d="M100.46,13.26s-.85,0-2.32-.08-3.58,0-6.08.14a43.88,43.88,0,0,0-8.35,1.39,30,30,0,0,0-4.4,1.63,19.7,19.7,0,0,0-4,2.56,15.22,15.22,0,0,0-3.19,3.47,6.73,6.73,0,0,0-.62,1c-.19.34-.4.67-.57,1A16.86,16.86,0,0,0,70,26.47a24.14,24.14,0,0,0-1.09,4.25,36.44,36.44,0,0,0-.37,4c0,.62,0,1.22,0,1.79s0,1.12,0,1.63c.08,1,.08,1.91.17,2.64L69,43.07s-.24-.81-.63-2.25c-.21-.72-.36-1.61-.56-2.63a31,31,0,0,1-.42-3.48c0-.64-.09-1.32-.08-2s0-1.43.09-2.17a21.47,21.47,0,0,1,.88-4.65A17.8,17.8,0,0,1,74,17.26a21.64,21.64,0,0,1,4.5-2.77,26.41,26.41,0,0,1,4.8-1.58,30.4,30.4,0,0,1,4.63-.7,37,37,0,0,1,4.15-.1,39.56,39.56,0,0,1,6.15.66c.73.13,1.3.26,1.69.36Z"/><path class="cls-10" d="M54.79,84.65a11.64,11.64,0,0,1,.07-2.5,6.5,6.5,0,0,1,.3-1.27A2.64,2.64,0,0,1,56,79.65a1.5,1.5,0,0,1,.9-.25,2.14,2.14,0,0,1,.81.25,3.81,3.81,0,0,1,.34.22c.09.08.15.11.25.21a4,4,0,0,1,.49.58A9.56,9.56,0,0,1,59.9,83,27.33,27.33,0,0,1,61,88a43.42,43.42,0,0,1,.4,5v.3l-.21.13a4.19,4.19,0,0,0-.59.47,2.69,2.69,0,0,0-.46.56.92.92,0,0,0,.08,1.18,3.77,3.77,0,0,0,1.31.88A14.23,14.23,0,0,0,63.1,97a10,10,0,0,1-1.69-.29A3.88,3.88,0,0,1,59.8,96a1.71,1.71,0,0,1-.53-.89,1.81,1.81,0,0,1,.16-1,3.51,3.51,0,0,1,.52-.81,5.32,5.32,0,0,1,.68-.66l-.2.43c-.23-1.61-.49-3.23-.78-4.82-.13-.8-.28-1.6-.46-2.39s-.35-1.57-.58-2.32a10.18,10.18,0,0,0-.85-2.13l-.27-.39c0-.06-.14-.14-.2-.21a1,1,0,0,0-.17-.13c-.26-.18-.42-.22-.61-.13a1.73,1.73,0,0,0-.63.73,9.74,9.74,0,0,0-.46,1.08C55.17,83,55,83.84,54.79,84.65Z"/><path class="cls-10" d="M132.36,84.65a20.1,20.1,0,0,0-.63-2.37,8.13,8.13,0,0,0-.45-1.08,1.73,1.73,0,0,0-.63-.73c-.19-.09-.35,0-.62.13a1.43,1.43,0,0,0-.16.13,1.88,1.88,0,0,0-.2.21l-.27.39a9.66,9.66,0,0,0-.85,2.13c-.23.75-.42,1.53-.58,2.32s-.33,1.59-.47,2.39c-.28,1.59-.54,3.21-.77,4.82l-.2-.43a5.32,5.32,0,0,1,.68.66,3.51,3.51,0,0,1,.52.81,1.73,1.73,0,0,1,.15,1,1.63,1.63,0,0,1-.52.89,3.88,3.88,0,0,1-1.61.78,10,10,0,0,1-1.69.29,14.23,14.23,0,0,0,1.58-.59,3.87,3.87,0,0,0,1.31-.88.94.94,0,0,0,.08-1.18,2.69,2.69,0,0,0-.46-.56,4.19,4.19,0,0,0-.59-.47l-.22-.13v-.3a45.8,45.8,0,0,1,.39-5,28.25,28.25,0,0,1,1.1-4.91,9.56,9.56,0,0,1,1.13-2.38,4.58,4.58,0,0,1,.48-.58c.1-.1.17-.13.26-.21a3.81,3.81,0,0,1,.34-.22,2.14,2.14,0,0,1,.81-.25,1.45,1.45,0,0,1,.89.25,2.59,2.59,0,0,1,.83,1.23,6.5,6.5,0,0,1,.3,1.27A11,11,0,0,1,132.36,84.65Z"/><path class="cls-10" d="M95.54,75.88c0,1.82,0,3.62.11,5.4,0,.88.11,1.77.22,2.64s.2,1.75.37,2.61.33,1.71.57,2.54c.14.41.25.82.39,1.23s.29.8.45,1.2a21.15,21.15,0,0,0,1.15,2.28,18.63,18.63,0,0,0,1.51,2l.59.68-.69.41c-1.07.64-2.16,1.23-3.25,1.83s-2.2,1.16-3.34,1.68c.92-.84,1.89-1.63,2.85-2.41s2-1.55,3-2.28l-.1,1.1a14,14,0,0,1-1-1c-.32-.35-.6-.73-.9-1.11A15.37,15.37,0,0,1,96,92.23a17.33,17.33,0,0,1-1-2.67,24.06,24.06,0,0,1-.55-2.76,26.43,26.43,0,0,1-.07-5.55,27,27,0,0,1,.41-2.72A18.55,18.55,0,0,1,95.54,75.88Z"/><path class="cls-10" d="M83.79,105.49s1.38.37,3.4.8c.5.09,1,.21,1.63.3s1.18.18,1.81.27,1.28.1,1.94.19,1.32.08,2,0a16.06,16.06,0,0,0,2-.08l1-.09c.32,0,.62-.11.93-.16s.61-.12.91-.16l.85-.23a11,11,0,0,0,1.56-.48l1.31-.48c.37-.19.71-.34,1-.47.56-.26.9-.4.9-.4s-.23.26-.68.7c-.22.22-.5.49-.83.79s-.76.54-1.21.83a7.92,7.92,0,0,1-1.56.83l-.88.4-1,.28a10.72,10.72,0,0,1-2.07.44,17.62,17.62,0,0,1-2.18.16c-.73,0-1.45-.08-2.17-.12s-1.4-.21-2-.38a13.7,13.7,0,0,1-1.87-.54,15.68,15.68,0,0,1-1.62-.63A13.8,13.8,0,0,1,83.79,105.49Z"/><path class="cls-11" d="M97,74a2,2,0,0,1,.06-.3,4.44,4.44,0,0,1,.25-.83,8.22,8.22,0,0,1,.55-1.24,10.2,10.2,0,0,1,1-1.48,11.69,11.69,0,0,1,1.47-1.56c.28-.26.63-.46,1-.71.16-.12.34-.23.51-.35l.57-.29a10,10,0,0,1,1.2-.54c.43-.13.87-.26,1.32-.37a6.21,6.21,0,0,1,1.37-.2,12.92,12.92,0,0,1,1.39,0l1.37.16.68.09.63.2a10.8,10.8,0,0,1,2.39.93,16,16,0,0,1,2,1.21c.57.46,1.1.91,1.57,1.33a7.86,7.86,0,0,1,1.16,1.27c.33.4.59.76.81,1.06.42.6.63,1,.63,1s-.42-.12-1.1-.38c-.34-.13-.75-.27-1.19-.48a16.13,16.13,0,0,0-1.5-.6c-.55-.2-1.13-.42-1.73-.67s-1.26-.37-1.89-.6a14.79,14.79,0,0,0-2-.48l-.5-.11-.5,0-1-.09a6.53,6.53,0,0,0-1,0,5.32,5.32,0,0,0-1,.07c-.32.06-.64.1-1,.14s-.61.18-.92.25l-.46.12-.44.18c-.29.11-.59.21-.87.34-.54.27-1.1.51-1.57.81s-.93.57-1.34.82-.75.51-1,.73-.52.37-.67.5Z"/><path class="cls-11" d="M67.8,74a2,2,0,0,1,.06-.3,5.37,5.37,0,0,1,.25-.83,9.37,9.37,0,0,1,.55-1.24,9.54,9.54,0,0,1,1-1.48,11.58,11.58,0,0,1,1.46-1.56c.29-.26.63-.46,1-.71l.51-.35.57-.29a10.12,10.12,0,0,1,1.21-.54c.42-.13.86-.26,1.31-.37a6.29,6.29,0,0,1,1.37-.2,12.92,12.92,0,0,1,1.39,0l1.37.16c.23,0,.46.05.68.09l.64.2a11,11,0,0,1,2.39.93,15.81,15.81,0,0,1,2,1.21c.58.46,1.1.91,1.57,1.33a8.45,8.45,0,0,1,1.17,1.27c.33.4.58.76.8,1.06a11.15,11.15,0,0,1,.63,1s-.42-.12-1.1-.38c-.33-.13-.75-.27-1.19-.48a15.87,15.87,0,0,0-1.49-.6c-.56-.2-1.14-.42-1.73-.67s-1.26-.37-1.9-.6a15,15,0,0,0-2-.48l-.5-.11-.51,0-1-.09a6.54,6.54,0,0,0-1,0,5.22,5.22,0,0,0-1,.07c-.32.06-.64.1-1,.14s-.62.18-.93.25l-.46.12-.44.18c-.29.11-.59.21-.87.34-.54.27-1.09.51-1.57.81s-.92.57-1.34.82-.75.51-1,.73-.52.37-.67.5Z"/><path class="cls-11" d="M81.3,80.66c0,2.55-.71,4.62-1.58,4.62s-1.58-2.07-1.58-4.62S78.85,76,79.72,76,81.3,78.1,81.3,80.66Z"/><path class="cls-11" d="M108.86,80c0,2.55-.71,4.62-1.58,4.62S105.7,82.58,105.7,80s.71-4.62,1.58-4.62S108.86,77.48,108.86,80Z"/></g></g></g></svg>